<svg xmlns="http://www.w3.org/2000/svg" viewBox="0 0 16 16" width="64" height="64" shape-rendering="crispEdges"><rect x="5" y="1" width="4" height="1" fill="#17130d"/><rect x="4" y="2" width="1" height="1" fill="#17130d"/><rect x="5" y="2" width="4" height="1" fill="#7a4f71"/><rect x="9" y="2" width="1" height="1" fill="#17130d"/><rect x="3" y="3" width="8" height="1" fill="#17130d"/><rect x="2" y="4" width="1" height="1" fill="#17130d"/><rect x="3" y="4" width="7" height="1" fill="#7a4f71"/><rect x="10" y="4" width="1" height="1" fill="#5c3a55"/><rect x="11" y="4" width="1" height="1" fill="#17130d"/><rect x="1" y="5" width="1" height="1" fill="#17130d"/><rect x="2" y="5" width="8" height="1" fill="#7a4f71"/><rect x="10" y="5" width="1" height="1" fill="#5c3a55"/><rect x="11" y="5" width="1" height="1" fill="#402738"/><rect x="12" y="5" width="1" height="1" fill="#17130d"/><rect x="1" y="6" width="1" height="1" fill="#17130d"/><rect x="2" y="6" width="1" height="1" fill="#7a4f71"/><rect x="3" y="6" width="7" height="1" fill="#9a6a91"/><rect x="10" y="6" width="1" height="1" fill="#5c3a55"/><rect x="11" y="6" width="1" height="1" fill="#402738"/><rect x="12" y="6" width="1" height="1" fill="#17130d"/><rect x="1" y="7" width="1" height="1" fill="#17130d"/><rect x="2" y="7" width="1" height="1" fill="#7a4f71"/><rect x="3" y="7" width="1" height="1" fill="#9a6a91"/><rect x="4" y="7" width="5" height="1" fill="#5c3a55"/><rect x="9" y="7" width="1" height="1" fill="#9a6a91"/><rect x="10" y="7" width="1" height="1" fill="#5c3a55"/><rect x="11" y="7" width="1" height="1" fill="#402738"/><rect x="12" y="7" width="1" height="1" fill="#17130d"/><rect x="1" y="8" width="1" height="1" fill="#17130d"/><rect x="2" y="8" width="1" height="1" fill="#7a4f71"/><rect x="3" y="8" width="1" height="1" fill="#9a6a91"/><rect x="4" y="8" width="5" height="1" fill="#5c3a55"/><rect x="9" y="8" width="1" height="1" fill="#9a6a91"/><rect x="10" y="8" width="1" height="1" fill="#5c3a55"/><rect x="11" y="8" width="1" height="1" fill="#402738"/><rect x="12" y="8" width="1" height="1" fill="#17130d"/><rect x="1" y="9" width="1" height="1" fill="#17130d"/><rect x="2" y="9" width="1" height="1" fill="#7a4f71"/><rect x="3" y="9" width="1" height="1" fill="#9a6a91"/><rect x="4" y="9" width="5" height="1" fill="#5c3a55"/><rect x="9" y="9" width="1" height="1" fill="#9a6a91"/><rect x="10" y="9" width="1" height="1" fill="#5c3a55"/><rect x="11" y="9" width="1" height="1" fill="#402738"/><rect x="12" y="9" width="1" height="1" fill="#17130d"/><rect x="1" y="10" width="1" height="1" fill="#17130d"/><rect x="2" y="10" width="1" height="1" fill="#7a4f71"/><rect x="3" y="10" width="1" height="1" fill="#9a6a91"/><rect x="4" y="10" width="5" height="1" fill="#5c3a55"/><rect x="9" y="10" width="1" height="1" fill="#9a6a91"/><rect x="10" y="10" width="1" height="1" fill="#5c3a55"/><rect x="11" y="10" width="1" height="1" fill="#402738"/><rect x="12" y="10" width="1" height="1" fill="#17130d"/><rect x="1" y="11" width="1" height="1" fill="#17130d"/><rect x="2" y="11" width="1" height="1" fill="#7a4f71"/><rect x="3" y="11" width="7" height="1" fill="#9a6a91"/><rect x="10" y="11" width="1" height="1" fill="#5c3a55"/><rect x="11" y="11" width="1" height="1" fill="#402738"/><rect x="12" y="11" width="1" height="1" fill="#17130d"/><rect x="1" y="12" width="1" height="1" fill="#17130d"/><rect x="2" y="12" width="1" height="1" fill="#7a4f71"/><rect x="3" y="12" width="8" height="1" fill="#5c3a55"/><rect x="11" y="12" width="1" height="1" fill="#402738"/><rect x="12" y="12" width="1" height="1" fill="#17130d"/><rect x="1" y="13" width="1" height="1" fill="#17130d"/><rect x="2" y="13" width="1" height="1" fill="#402738"/><rect x="3" y="13" width="1" height="1" fill="#5c3a55"/><rect x="4" y="13" width="6" height="1" fill="#1d2f22"/><rect x="10" y="13" width="2" height="1" fill="#402738"/><rect x="12" y="13" width="1" height="1" fill="#17130d"/><rect x="2" y="14" width="10" height="1" fill="#17130d"/></svg>
