<svg xmlns="http://www.w3.org/2000/svg" viewBox="0 0 16 16" width="64" height="64" shape-rendering="crispEdges"><rect x="4" y="0" width="8" height="1" fill="#17130d"/><rect x="2" y="1" width="2" height="1" fill="#17130d"/><rect x="4" y="1" width="6" height="1" fill="#f4f7f8"/><rect x="10" y="1" width="2" height="1" fill="#c2ccd3"/><rect x="12" y="1" width="2" height="1" fill="#17130d"/><rect x="1" y="2" width="1" height="1" fill="#17130d"/><rect x="2" y="2" width="2" height="1" fill="#f4f7f8"/><rect x="4" y="2" width="9" height="1" fill="#c2ccd3"/><rect x="13" y="2" width="1" height="1" fill="#7d8891"/><rect x="14" y="2" width="1" height="1" fill="#17130d"/><rect x="1" y="3" width="1" height="1" fill="#17130d"/><rect x="2" y="3" width="2" height="1" fill="#c2ccd3"/><rect x="4" y="3" width="8" height="1" fill="#7d8891"/><rect x="12" y="3" width="1" height="1" fill="#c2ccd3"/><rect x="13" y="3" width="1" height="1" fill="#7d8891"/><rect x="14" y="3" width="1" height="1" fill="#17130d"/><rect x="1" y="4" width="1" height="1" fill="#17130d"/><rect x="2" y="4" width="10" height="1" fill="#28b599"/><rect x="12" y="4" width="2" height="1" fill="#167c68"/><rect x="14" y="4" width="1" height="1" fill="#17130d"/><rect x="1" y="5" width="1" height="1" fill="#17130d"/><rect x="2" y="5" width="1" height="1" fill="#28b599"/><rect x="3" y="5" width="9" height="1" fill="#efe7d2"/><rect x="12" y="5" width="2" height="1" fill="#167c68"/><rect x="14" y="5" width="1" height="1" fill="#17130d"/><rect x="1" y="6" width="1" height="1" fill="#17130d"/><rect x="2" y="6" width="1" height="1" fill="#28b599"/><rect x="3" y="6" width="1" height="1" fill="#efe7d2"/><rect x="4" y="6" width="7" height="1" fill="#3e9bd9"/><rect x="11" y="6" width="1" height="1" fill="#efe7d2"/><rect x="12" y="6" width="2" height="1" fill="#167c68"/><rect x="14" y="6" width="1" height="1" fill="#17130d"/><rect x="1" y="7" width="1" height="1" fill="#17130d"/><rect x="2" y="7" width="1" height="1" fill="#28b599"/><rect x="3" y="7" width="1" height="1" fill="#efe7d2"/><rect x="4" y="7" width="7" height="1" fill="#3e9bd9"/><rect x="11" y="7" width="1" height="1" fill="#efe7d2"/><rect x="12" y="7" width="2" height="1" fill="#167c68"/><rect x="14" y="7" width="1" height="1" fill="#17130d"/><rect x="1" y="8" width="1" height="1" fill="#17130d"/><rect x="2" y="8" width="1" height="1" fill="#28b599"/><rect x="3" y="8" width="9" height="1" fill="#efe7d2"/><rect x="12" y="8" width="2" height="1" fill="#167c68"/><rect x="14" y="8" width="1" height="1" fill="#17130d"/><rect x="1" y="9" width="1" height="1" fill="#17130d"/><rect x="2" y="9" width="10" height="1" fill="#28b599"/><rect x="12" y="9" width="2" height="1" fill="#167c68"/><rect x="14" y="9" width="1" height="1" fill="#17130d"/><rect x="1" y="10" width="1" height="1" fill="#17130d"/><rect x="2" y="10" width="12" height="1" fill="#167c68"/><rect x="14" y="10" width="1" height="1" fill="#17130d"/><rect x="1" y="11" width="1" height="1" fill="#17130d"/><rect x="2" y="11" width="10" height="1" fill="#c2ccd3"/><rect x="12" y="11" width="2" height="1" fill="#7d8891"/><rect x="14" y="11" width="1" height="1" fill="#17130d"/><rect x="1" y="12" width="1" height="1" fill="#17130d"/><rect x="2" y="12" width="2" height="1" fill="#f4f7f8"/><rect x="4" y="12" width="7" height="1" fill="#c2ccd3"/><rect x="11" y="12" width="3" height="1" fill="#7d8891"/><rect x="14" y="12" width="1" height="1" fill="#17130d"/><rect x="2" y="13" width="2" height="1" fill="#17130d"/><rect x="4" y="13" width="6" height="1" fill="#c2ccd3"/><rect x="10" y="13" width="2" height="1" fill="#7d8891"/><rect x="12" y="13" width="2" height="1" fill="#17130d"/><rect x="4" y="14" width="8" height="1" fill="#17130d"/></svg>
