<svg xmlns="http://www.w3.org/2000/svg" viewBox="0 0 16 16" width="64" height="64" shape-rendering="crispEdges"><rect x="4" y="3" width="1" height="1" fill="#17130d"/><rect x="12" y="3" width="1" height="1" fill="#17130d"/><rect x="0" y="4" width="12" height="1" fill="#17130d"/><rect x="0" y="5" width="1" height="1" fill="#17130d"/><rect x="1" y="5" width="2" height="1" fill="#304b8a"/><rect x="3" y="5" width="1" height="1" fill="#4461b0"/><rect x="4" y="5" width="7" height="1" fill="#3f444d"/><rect x="11" y="5" width="4" height="1" fill="#6d7581"/><rect x="15" y="5" width="1" height="1" fill="#17130d"/><rect x="0" y="6" width="1" height="1" fill="#17130d"/><rect x="1" y="6" width="1" height="1" fill="#1e325f"/><rect x="2" y="6" width="2" height="1" fill="#304b8a"/><rect x="4" y="6" width="7" height="1" fill="#3f444d"/><rect x="11" y="6" width="5" height="1" fill="#17130d"/><rect x="0" y="7" width="5" height="1" fill="#17130d"/><rect x="5" y="7" width="5" height="1" fill="#3f444d"/><rect x="10" y="7" width="2" height="1" fill="#17130d"/><rect x="5" y="8" width="1" height="1" fill="#17130d"/><rect x="6" y="8" width="2" height="1" fill="#304b8a"/><rect x="8" y="8" width="1" height="1" fill="#17130d"/><rect x="10" y="8" width="1" height="1" fill="#17130d"/><rect x="11" y="8" width="2" height="1" fill="#4b525c"/><rect x="13" y="8" width="1" height="1" fill="#17130d"/><rect x="5" y="9" width="1" height="1" fill="#17130d"/><rect x="6" y="9" width="2" height="1" fill="#304b8a"/><rect x="8" y="9" width="1" height="1" fill="#17130d"/><rect x="11" y="9" width="1" height="1" fill="#17130d"/><rect x="12" y="9" width="2" height="1" fill="#4b525c"/><rect x="14" y="9" width="1" height="1" fill="#17130d"/><rect x="5" y="10" width="4" height="1" fill="#17130d"/><rect x="12" y="10" width="1" height="1" fill="#17130d"/><rect x="13" y="10" width="2" height="1" fill="#4b525c"/><rect x="15" y="10" width="1" height="1" fill="#17130d"/><rect x="12" y="11" width="4" height="1" fill="#17130d"/></svg>
