<svg xmlns="http://www.w3.org/2000/svg" viewBox="0 0 16 16" width="64" height="64" shape-rendering="crispEdges"><rect x="4" y="1" width="8" height="1" fill="#17130d"/><rect x="4" y="2" width="1" height="1" fill="#17130d"/><rect x="5" y="2" width="5" height="1" fill="#f0efe6"/><rect x="10" y="2" width="1" height="1" fill="#b9b7a6"/><rect x="11" y="2" width="1" height="1" fill="#17130d"/><rect x="4" y="3" width="1" height="1" fill="#17130d"/><rect x="5" y="3" width="5" height="1" fill="#f0efe6"/><rect x="10" y="3" width="1" height="1" fill="#b9b7a6"/><rect x="11" y="3" width="1" height="1" fill="#17130d"/><rect x="4" y="4" width="8" height="1" fill="#17130d"/><rect x="3" y="5" width="2" height="1" fill="#17130d"/><rect x="5" y="5" width="6" height="1" fill="#2acf7d"/><rect x="11" y="5" width="2" height="1" fill="#17130d"/><rect x="2" y="6" width="1" height="1" fill="#17130d"/><rect x="3" y="6" width="1" height="1" fill="#55e8a3"/><rect x="4" y="6" width="7" height="1" fill="#2acf7d"/><rect x="11" y="6" width="2" height="1" fill="#1b9652"/><rect x="13" y="6" width="1" height="1" fill="#17130d"/><rect x="2" y="7" width="1" height="1" fill="#17130d"/><rect x="3" y="7" width="1" height="1" fill="#55e8a3"/><rect x="4" y="7" width="8" height="1" fill="#efe6cf"/><rect x="12" y="7" width="1" height="1" fill="#1b9652"/><rect x="13" y="7" width="1" height="1" fill="#17130d"/><rect x="2" y="8" width="1" height="1" fill="#17130d"/><rect x="3" y="8" width="1" height="1" fill="#55e8a3"/><rect x="4" y="8" width="2" height="1" fill="#efe6cf"/><rect x="6" y="8" width="2" height="1" fill="#c33b2c"/><rect x="8" y="8" width="2" height="1" fill="#f0efe6"/><rect x="10" y="8" width="2" height="1" fill="#efe6cf"/><rect x="12" y="8" width="1" height="1" fill="#1b9652"/><rect x="13" y="8" width="1" height="1" fill="#17130d"/><rect x="2" y="9" width="1" height="1" fill="#17130d"/><rect x="3" y="9" width="1" height="1" fill="#55e8a3"/><rect x="4" y="9" width="2" height="1" fill="#efe6cf"/><rect x="6" y="9" width="2" height="1" fill="#c33b2c"/><rect x="8" y="9" width="2" height="1" fill="#f0efe6"/><rect x="10" y="9" width="2" height="1" fill="#efe6cf"/><rect x="12" y="9" width="1" height="1" fill="#1b9652"/><rect x="13" y="9" width="1" height="1" fill="#17130d"/><rect x="2" y="10" width="1" height="1" fill="#17130d"/><rect x="3" y="10" width="1" height="1" fill="#55e8a3"/><rect x="4" y="10" width="8" height="1" fill="#efe6cf"/><rect x="12" y="10" width="1" height="1" fill="#1b9652"/><rect x="13" y="10" width="1" height="1" fill="#17130d"/><rect x="2" y="11" width="1" height="1" fill="#17130d"/><rect x="3" y="11" width="1" height="1" fill="#55e8a3"/><rect x="4" y="11" width="7" height="1" fill="#2acf7d"/><rect x="11" y="11" width="2" height="1" fill="#1b9652"/><rect x="13" y="11" width="1" height="1" fill="#17130d"/><rect x="2" y="12" width="1" height="1" fill="#17130d"/><rect x="3" y="12" width="1" height="1" fill="#55e8a3"/><rect x="4" y="12" width="6" height="1" fill="#2acf7d"/><rect x="10" y="12" width="3" height="1" fill="#1b9652"/><rect x="13" y="12" width="1" height="1" fill="#17130d"/><rect x="2" y="13" width="1" height="1" fill="#17130d"/><rect x="3" y="13" width="2" height="1" fill="#1b9652"/><rect x="5" y="13" width="5" height="1" fill="#2acf7d"/><rect x="10" y="13" width="3" height="1" fill="#1b9652"/><rect x="13" y="13" width="1" height="1" fill="#17130d"/><rect x="3" y="14" width="10" height="1" fill="#17130d"/></svg>
