<svg xmlns="http://www.w3.org/2000/svg" viewBox="0 0 16 16" width="64" height="64" shape-rendering="crispEdges"><rect x="1" y="3" width="14" height="1" fill="#17130d"/><rect x="1" y="4" width="1" height="1" fill="#17130d"/><rect x="2" y="4" width="1" height="1" fill="#4b525c"/><rect x="3" y="4" width="11" height="1" fill="#9aa2ac"/><rect x="14" y="4" width="1" height="1" fill="#17130d"/><rect x="1" y="5" width="14" height="1" fill="#17130d"/><rect x="1" y="6" width="1" height="1" fill="#17130d"/><rect x="2" y="6" width="1" height="1" fill="#4b525c"/><rect x="3" y="6" width="11" height="1" fill="#6d7581"/><rect x="14" y="6" width="1" height="1" fill="#17130d"/><rect x="1" y="7" width="14" height="1" fill="#17130d"/><rect x="2" y="8" width="1" height="1" fill="#17130d"/><rect x="3" y="8" width="1" height="1" fill="#b08c44"/><rect x="4" y="8" width="2" height="1" fill="#8a6930"/><rect x="6" y="8" width="1" height="1" fill="#17130d"/><rect x="10" y="8" width="1" height="1" fill="#17130d"/><rect x="11" y="8" width="3" height="1" fill="#8a6930"/><rect x="14" y="8" width="1" height="1" fill="#17130d"/><rect x="2" y="9" width="5" height="1" fill="#17130d"/><rect x="11" y="9" width="1" height="1" fill="#17130d"/><rect x="12" y="9" width="3" height="1" fill="#8a6930"/><rect x="15" y="9" width="1" height="1" fill="#17130d"/><rect x="12" y="10" width="1" height="1" fill="#17130d"/><rect x="13" y="10" width="1" height="1" fill="#5f461e"/><rect x="14" y="10" width="1" height="1" fill="#8a6930"/><rect x="15" y="10" width="1" height="1" fill="#17130d"/><rect x="13" y="11" width="3" height="1" fill="#17130d"/></svg>
