<svg xmlns="http://www.w3.org/2000/svg" viewBox="0 0 16 16" width="64" height="64" shape-rendering="crispEdges"><rect x="5" y="1" width="6" height="1" fill="#17130d"/><rect x="4" y="2" width="2" height="1" fill="#17130d"/><rect x="10" y="2" width="2" height="1" fill="#17130d"/><rect x="2" y="3" width="12" height="1" fill="#17130d"/><rect x="1" y="4" width="1" height="1" fill="#17130d"/><rect x="2" y="4" width="1" height="1" fill="#464274"/><rect x="3" y="4" width="9" height="1" fill="#635e9a"/><rect x="12" y="4" width="1" height="1" fill="#464274"/><rect x="13" y="4" width="1" height="1" fill="#2a264a"/><rect x="14" y="4" width="1" height="1" fill="#17130d"/><rect x="1" y="5" width="1" height="1" fill="#17130d"/><rect x="2" y="5" width="11" height="1" fill="#464274"/><rect x="13" y="5" width="1" height="1" fill="#2a264a"/><rect x="14" y="5" width="1" height="1" fill="#17130d"/><rect x="1" y="6" width="14" height="1" fill="#17130d"/><rect x="1" y="7" width="1" height="1" fill="#17130d"/><rect x="2" y="7" width="11" height="1" fill="#464274"/><rect x="13" y="7" width="1" height="1" fill="#2a264a"/><rect x="14" y="7" width="1" height="1" fill="#17130d"/><rect x="1" y="8" width="1" height="1" fill="#17130d"/><rect x="2" y="8" width="1" height="1" fill="#464274"/><rect x="3" y="8" width="2" height="1" fill="#d4af37"/><rect x="5" y="8" width="1" height="1" fill="#464274"/><rect x="6" y="8" width="1" height="1" fill="#d4af37"/><rect x="7" y="8" width="1" height="1" fill="#464274"/><rect x="8" y="8" width="2" height="1" fill="#d4af37"/><rect x="10" y="8" width="1" height="1" fill="#464274"/><rect x="11" y="8" width="2" height="1" fill="#d4af37"/><rect x="13" y="8" width="1" height="1" fill="#2a264a"/><rect x="14" y="8" width="1" height="1" fill="#17130d"/><rect x="1" y="9" width="1" height="1" fill="#17130d"/><rect x="2" y="9" width="11" height="1" fill="#464274"/><rect x="13" y="9" width="1" height="1" fill="#2a264a"/><rect x="14" y="9" width="1" height="1" fill="#17130d"/><rect x="1" y="10" width="1" height="1" fill="#17130d"/><rect x="2" y="10" width="11" height="1" fill="#464274"/><rect x="13" y="10" width="1" height="1" fill="#2a264a"/><rect x="14" y="10" width="1" height="1" fill="#17130d"/><rect x="1" y="11" width="1" height="1" fill="#17130d"/><rect x="2" y="11" width="12" height="1" fill="#2a264a"/><rect x="14" y="11" width="1" height="1" fill="#17130d"/><rect x="1" y="12" width="14" height="1" fill="#17130d"/></svg>
