<svg xmlns="http://www.w3.org/2000/svg" viewBox="0 0 16 16" width="64" height="64" shape-rendering="crispEdges"><rect x="4" y="1" width="8" height="1" fill="#17130d"/><rect x="3" y="2" width="1" height="1" fill="#17130d"/><rect x="4" y="2" width="1" height="1" fill="#d4685a"/><rect x="5" y="2" width="6" height="1" fill="#b53228"/><rect x="11" y="2" width="1" height="1" fill="#7c1e16"/><rect x="12" y="2" width="1" height="1" fill="#17130d"/><rect x="3" y="3" width="1" height="1" fill="#17130d"/><rect x="4" y="3" width="1" height="1" fill="#d4685a"/><rect x="5" y="3" width="6" height="1" fill="#b53228"/><rect x="11" y="3" width="1" height="1" fill="#7c1e16"/><rect x="12" y="3" width="1" height="1" fill="#17130d"/><rect x="3" y="4" width="1" height="1" fill="#17130d"/><rect x="4" y="4" width="1" height="1" fill="#d4685a"/><rect x="5" y="4" width="1" height="1" fill="#b53228"/><rect x="6" y="4" width="4" height="1" fill="#7c1e16"/><rect x="10" y="4" width="1" height="1" fill="#b53228"/><rect x="11" y="4" width="1" height="1" fill="#7c1e16"/><rect x="12" y="4" width="1" height="1" fill="#17130d"/><rect x="3" y="5" width="1" height="1" fill="#17130d"/><rect x="4" y="5" width="1" height="1" fill="#d4685a"/><rect x="5" y="5" width="6" height="1" fill="#b53228"/><rect x="11" y="5" width="1" height="1" fill="#7c1e16"/><rect x="12" y="5" width="1" height="1" fill="#17130d"/><rect x="3" y="6" width="1" height="1" fill="#17130d"/><rect x="4" y="6" width="1" height="1" fill="#d4685a"/><rect x="5" y="6" width="6" height="1" fill="#b53228"/><rect x="11" y="6" width="1" height="1" fill="#7c1e16"/><rect x="12" y="6" width="1" height="1" fill="#17130d"/><rect x="3" y="7" width="1" height="1" fill="#17130d"/><rect x="4" y="7" width="1" height="1" fill="#d4685a"/><rect x="5" y="7" width="6" height="1" fill="#b53228"/><rect x="11" y="7" width="1" height="1" fill="#7c1e16"/><rect x="12" y="7" width="1" height="1" fill="#17130d"/><rect x="3" y="8" width="1" height="1" fill="#17130d"/><rect x="4" y="8" width="1" height="1" fill="#d4685a"/><rect x="5" y="8" width="6" height="1" fill="#b53228"/><rect x="11" y="8" width="1" height="1" fill="#7c1e16"/><rect x="12" y="8" width="1" height="1" fill="#17130d"/><rect x="3" y="9" width="10" height="1" fill="#17130d"/><rect x="3" y="10" width="1" height="1" fill="#17130d"/><rect x="4" y="10" width="1" height="1" fill="#ecd06d"/><rect x="5" y="10" width="6" height="1" fill="#d4af37"/><rect x="11" y="10" width="1" height="1" fill="#96741e"/><rect x="12" y="10" width="1" height="1" fill="#17130d"/><rect x="3" y="11" width="1" height="1" fill="#17130d"/><rect x="4" y="11" width="1" height="1" fill="#ecd06d"/><rect x="5" y="11" width="6" height="1" fill="#d4af37"/><rect x="11" y="11" width="1" height="1" fill="#96741e"/><rect x="12" y="11" width="1" height="1" fill="#17130d"/><rect x="2" y="12" width="1" height="1" fill="#17130d"/><rect x="3" y="12" width="2" height="1" fill="#ecd06d"/><rect x="5" y="12" width="6" height="1" fill="#d4af37"/><rect x="11" y="12" width="2" height="1" fill="#96741e"/><rect x="13" y="12" width="1" height="1" fill="#17130d"/><rect x="2" y="13" width="12" height="1" fill="#17130d"/></svg>
