<svg xmlns="http://www.w3.org/2000/svg" viewBox="0 0 16 16" width="64" height="64" shape-rendering="crispEdges"><rect x="2" y="2" width="12" height="1" fill="#17130d"/><rect x="1" y="3" width="1" height="1" fill="#17130d"/><rect x="2" y="3" width="1" height="1" fill="#208a6e"/><rect x="3" y="3" width="10" height="1" fill="#7ef2de"/><rect x="13" y="3" width="1" height="1" fill="#208a6e"/><rect x="14" y="3" width="1" height="1" fill="#17130d"/><rect x="1" y="4" width="1" height="1" fill="#17130d"/><rect x="2" y="4" width="1" height="1" fill="#208a6e"/><rect x="3" y="4" width="10" height="1" fill="#3ee0c0"/><rect x="13" y="4" width="1" height="1" fill="#208a6e"/><rect x="14" y="4" width="1" height="1" fill="#17130d"/><rect x="1" y="5" width="1" height="1" fill="#17130d"/><rect x="2" y="5" width="1" height="1" fill="#208a6e"/><rect x="3" y="5" width="2" height="1" fill="#3ee0c0"/><rect x="5" y="5" width="6" height="1" fill="#b53228"/><rect x="11" y="5" width="2" height="1" fill="#3ee0c0"/><rect x="13" y="5" width="1" height="1" fill="#208a6e"/><rect x="14" y="5" width="1" height="1" fill="#17130d"/><rect x="1" y="6" width="1" height="1" fill="#17130d"/><rect x="2" y="6" width="1" height="1" fill="#208a6e"/><rect x="3" y="6" width="1" height="1" fill="#3ee0c0"/><rect x="4" y="6" width="2" height="1" fill="#b53228"/><rect x="6" y="6" width="4" height="1" fill="#f4ecd9"/><rect x="10" y="6" width="2" height="1" fill="#b53228"/><rect x="12" y="6" width="1" height="1" fill="#3ee0c0"/><rect x="13" y="6" width="1" height="1" fill="#208a6e"/><rect x="14" y="6" width="1" height="1" fill="#17130d"/><rect x="1" y="7" width="1" height="1" fill="#17130d"/><rect x="2" y="7" width="1" height="1" fill="#208a6e"/><rect x="3" y="7" width="1" height="1" fill="#3ee0c0"/><rect x="4" y="7" width="1" height="1" fill="#b53228"/><rect x="5" y="7" width="6" height="1" fill="#f4ecd9"/><rect x="11" y="7" width="1" height="1" fill="#b53228"/><rect x="12" y="7" width="1" height="1" fill="#3ee0c0"/><rect x="13" y="7" width="1" height="1" fill="#208a6e"/><rect x="14" y="7" width="1" height="1" fill="#17130d"/><rect x="1" y="8" width="1" height="1" fill="#17130d"/><rect x="2" y="8" width="1" height="1" fill="#208a6e"/><rect x="3" y="8" width="1" height="1" fill="#3ee0c0"/><rect x="4" y="8" width="2" height="1" fill="#b53228"/><rect x="6" y="8" width="4" height="1" fill="#f4ecd9"/><rect x="10" y="8" width="2" height="1" fill="#b53228"/><rect x="12" y="8" width="1" height="1" fill="#3ee0c0"/><rect x="13" y="8" width="1" height="1" fill="#208a6e"/><rect x="14" y="8" width="1" height="1" fill="#17130d"/><rect x="1" y="9" width="1" height="1" fill="#17130d"/><rect x="2" y="9" width="1" height="1" fill="#208a6e"/><rect x="3" y="9" width="2" height="1" fill="#3ee0c0"/><rect x="5" y="9" width="6" height="1" fill="#b53228"/><rect x="11" y="9" width="2" height="1" fill="#3ee0c0"/><rect x="13" y="9" width="1" height="1" fill="#208a6e"/><rect x="14" y="9" width="1" height="1" fill="#17130d"/><rect x="1" y="10" width="1" height="1" fill="#17130d"/><rect x="2" y="10" width="1" height="1" fill="#208a6e"/><rect x="3" y="10" width="10" height="1" fill="#3ee0c0"/><rect x="13" y="10" width="1" height="1" fill="#208a6e"/><rect x="14" y="10" width="1" height="1" fill="#17130d"/><rect x="1" y="11" width="1" height="1" fill="#17130d"/><rect x="2" y="11" width="1" height="1" fill="#208a6e"/><rect x="3" y="11" width="10" height="1" fill="#1fa583"/><rect x="13" y="11" width="1" height="1" fill="#208a6e"/><rect x="14" y="11" width="1" height="1" fill="#17130d"/><rect x="2" y="12" width="12" height="1" fill="#17130d"/></svg>
