<svg xmlns="http://www.w3.org/2000/svg" viewBox="0 0 16 16" width="64" height="64" shape-rendering="crispEdges"><rect x="6" y="0" width="3" height="1" fill="#17130d"/><rect x="5" y="1" width="1" height="1" fill="#17130d"/><rect x="6" y="1" width="3" height="1" fill="#3a3f47"/><rect x="9" y="1" width="1" height="1" fill="#17130d"/><rect x="5" y="2" width="1" height="1" fill="#17130d"/><rect x="6" y="2" width="3" height="1" fill="#3a3f47"/><rect x="9" y="2" width="1" height="1" fill="#17130d"/><rect x="4" y="3" width="7" height="1" fill="#17130d"/><rect x="4" y="4" width="1" height="1" fill="#17130d"/><rect x="5" y="4" width="1" height="1" fill="#5ad0b7"/><rect x="6" y="4" width="4" height="1" fill="#3fc4a9"/><rect x="10" y="4" width="1" height="1" fill="#227f6c"/><rect x="11" y="4" width="1" height="1" fill="#17130d"/><rect x="4" y="5" width="1" height="1" fill="#17130d"/><rect x="5" y="5" width="1" height="1" fill="#5ad0b7"/><rect x="6" y="5" width="4" height="1" fill="#3fc4a9"/><rect x="10" y="5" width="1" height="1" fill="#227f6c"/><rect x="11" y="5" width="1" height="1" fill="#17130d"/><rect x="4" y="6" width="1" height="1" fill="#17130d"/><rect x="5" y="6" width="1" height="1" fill="#5ad0b7"/><rect x="6" y="6" width="1" height="1" fill="#3fc4a9"/><rect x="7" y="6" width="2" height="1" fill="#f0ead4"/><rect x="9" y="6" width="1" height="1" fill="#3fc4a9"/><rect x="10" y="6" width="1" height="1" fill="#227f6c"/><rect x="11" y="6" width="1" height="1" fill="#17130d"/><rect x="4" y="7" width="1" height="1" fill="#17130d"/><rect x="5" y="7" width="1" height="1" fill="#5ad0b7"/><rect x="6" y="7" width="1" height="1" fill="#3fc4a9"/><rect x="7" y="7" width="2" height="1" fill="#f0ead4"/><rect x="9" y="7" width="1" height="1" fill="#3fc4a9"/><rect x="10" y="7" width="1" height="1" fill="#227f6c"/><rect x="11" y="7" width="1" height="1" fill="#17130d"/><rect x="4" y="8" width="1" height="1" fill="#17130d"/><rect x="5" y="8" width="1" height="1" fill="#5ad0b7"/><rect x="6" y="8" width="1" height="1" fill="#3fc4a9"/><rect x="7" y="8" width="2" height="1" fill="#f0ead4"/><rect x="9" y="8" width="1" height="1" fill="#3fc4a9"/><rect x="10" y="8" width="1" height="1" fill="#227f6c"/><rect x="11" y="8" width="1" height="1" fill="#17130d"/><rect x="4" y="9" width="1" height="1" fill="#17130d"/><rect x="5" y="9" width="1" height="1" fill="#5ad0b7"/><rect x="6" y="9" width="4" height="1" fill="#3fc4a9"/><rect x="10" y="9" width="1" height="1" fill="#227f6c"/><rect x="11" y="9" width="1" height="1" fill="#17130d"/><rect x="4" y="10" width="1" height="1" fill="#17130d"/><rect x="5" y="10" width="1" height="1" fill="#5ad0b7"/><rect x="6" y="10" width="4" height="1" fill="#3fc4a9"/><rect x="10" y="10" width="1" height="1" fill="#227f6c"/><rect x="11" y="10" width="1" height="1" fill="#17130d"/><rect x="4" y="11" width="1" height="1" fill="#17130d"/><rect x="5" y="11" width="1" height="1" fill="#5ad0b7"/><rect x="6" y="11" width="4" height="1" fill="#3fc4a9"/><rect x="10" y="11" width="1" height="1" fill="#227f6c"/><rect x="11" y="11" width="1" height="1" fill="#17130d"/><rect x="4" y="12" width="1" height="1" fill="#17130d"/><rect x="5" y="12" width="1" height="1" fill="#5ad0b7"/><rect x="6" y="12" width="4" height="1" fill="#3fc4a9"/><rect x="10" y="12" width="1" height="1" fill="#227f6c"/><rect x="11" y="12" width="1" height="1" fill="#17130d"/><rect x="4" y="13" width="7" height="1" fill="#17130d"/></svg>
