<svg xmlns="http://www.w3.org/2000/svg" viewBox="0 0 16 16" width="64" height="64" shape-rendering="crispEdges"><rect x="1" y="2" width="2" height="1" fill="#17130d"/><rect x="13" y="2" width="2" height="1" fill="#17130d"/><rect x="1" y="3" width="14" height="1" fill="#17130d"/><rect x="1" y="4" width="1" height="1" fill="#17130d"/><rect x="2" y="4" width="11" height="1" fill="#9aa2ac"/><rect x="13" y="4" width="1" height="1" fill="#4b525c"/><rect x="14" y="4" width="1" height="1" fill="#17130d"/><rect x="1" y="5" width="1" height="1" fill="#17130d"/><rect x="2" y="5" width="11" height="1" fill="#6d7581"/><rect x="13" y="5" width="1" height="1" fill="#4b525c"/><rect x="14" y="5" width="1" height="1" fill="#17130d"/><rect x="1" y="6" width="14" height="1" fill="#17130d"/><rect x="1" y="7" width="1" height="1" fill="#17130d"/><rect x="2" y="7" width="11" height="1" fill="#3a3f47"/><rect x="13" y="7" width="2" height="1" fill="#17130d"/><rect x="1" y="8" width="1" height="1" fill="#17130d"/><rect x="2" y="8" width="5" height="1" fill="#3a3f47"/><rect x="7" y="8" width="5" height="1" fill="#17130d"/><rect x="1" y="9" width="1" height="1" fill="#17130d"/><rect x="2" y="9" width="3" height="1" fill="#6b4a2a"/><rect x="5" y="9" width="1" height="1" fill="#45301b"/><rect x="6" y="9" width="1" height="1" fill="#17130d"/><rect x="10" y="9" width="2" height="1" fill="#17130d"/><rect x="1" y="10" width="1" height="1" fill="#17130d"/><rect x="2" y="10" width="1" height="1" fill="#6b4a2a"/><rect x="3" y="10" width="1" height="1" fill="#8a6438"/><rect x="4" y="10" width="1" height="1" fill="#6b4a2a"/><rect x="5" y="10" width="1" height="1" fill="#45301b"/><rect x="6" y="10" width="1" height="1" fill="#17130d"/><rect x="9" y="10" width="2" height="1" fill="#17130d"/><rect x="2" y="11" width="1" height="1" fill="#17130d"/><rect x="3" y="11" width="1" height="1" fill="#6b4a2a"/><rect x="4" y="11" width="1" height="1" fill="#8a6438"/><rect x="5" y="11" width="1" height="1" fill="#6b4a2a"/><rect x="6" y="11" width="1" height="1" fill="#45301b"/><rect x="7" y="11" width="3" height="1" fill="#17130d"/><rect x="2" y="12" width="1" height="1" fill="#17130d"/><rect x="3" y="12" width="3" height="1" fill="#6b4a2a"/><rect x="6" y="12" width="1" height="1" fill="#45301b"/><rect x="7" y="12" width="1" height="1" fill="#17130d"/><rect x="3" y="13" width="5" height="1" fill="#17130d"/></svg>
