<svg xmlns="http://www.w3.org/2000/svg" viewBox="0 0 16 16" width="64" height="64" shape-rendering="crispEdges"><rect x="4" y="1" width="8" height="1" fill="#17130d"/><rect x="3" y="2" width="1" height="1" fill="#17130d"/><rect x="4" y="2" width="7" height="1" fill="#d8d8cc"/><rect x="11" y="2" width="1" height="1" fill="#a0a094"/><rect x="12" y="2" width="1" height="1" fill="#17130d"/><rect x="3" y="3" width="1" height="1" fill="#17130d"/><rect x="4" y="3" width="7" height="1" fill="#a0a094"/><rect x="11" y="3" width="1" height="1" fill="#d8d8cc"/><rect x="12" y="3" width="1" height="1" fill="#17130d"/><rect x="2" y="4" width="12" height="1" fill="#17130d"/><rect x="2" y="5" width="1" height="1" fill="#17130d"/><rect x="3" y="5" width="1" height="1" fill="#9cc4cf"/><rect x="4" y="5" width="1" height="1" fill="#cfe8ee"/><rect x="5" y="5" width="6" height="1" fill="#b52f6e"/><rect x="11" y="5" width="1" height="1" fill="#7c1a49"/><rect x="12" y="5" width="1" height="1" fill="#9cc4cf"/><rect x="13" y="5" width="1" height="1" fill="#17130d"/><rect x="2" y="6" width="1" height="1" fill="#17130d"/><rect x="3" y="6" width="1" height="1" fill="#9cc4cf"/><rect x="4" y="6" width="1" height="1" fill="#cfe8ee"/><rect x="5" y="6" width="6" height="1" fill="#b52f6e"/><rect x="11" y="6" width="1" height="1" fill="#7c1a49"/><rect x="12" y="6" width="1" height="1" fill="#9cc4cf"/><rect x="13" y="6" width="1" height="1" fill="#17130d"/><rect x="2" y="7" width="1" height="1" fill="#17130d"/><rect x="3" y="7" width="1" height="1" fill="#9cc4cf"/><rect x="4" y="7" width="1" height="1" fill="#cfe8ee"/><rect x="5" y="7" width="6" height="1" fill="#b52f6e"/><rect x="11" y="7" width="1" height="1" fill="#7c1a49"/><rect x="12" y="7" width="1" height="1" fill="#9cc4cf"/><rect x="13" y="7" width="1" height="1" fill="#17130d"/><rect x="2" y="8" width="1" height="1" fill="#17130d"/><rect x="3" y="8" width="1" height="1" fill="#9cc4cf"/><rect x="4" y="8" width="1" height="1" fill="#cfe8ee"/><rect x="5" y="8" width="6" height="1" fill="#b52f6e"/><rect x="11" y="8" width="1" height="1" fill="#7c1a49"/><rect x="12" y="8" width="1" height="1" fill="#9cc4cf"/><rect x="13" y="8" width="1" height="1" fill="#17130d"/><rect x="2" y="9" width="1" height="1" fill="#17130d"/><rect x="3" y="9" width="1" height="1" fill="#9cc4cf"/><rect x="4" y="9" width="1" height="1" fill="#cfe8ee"/><rect x="5" y="9" width="6" height="1" fill="#b52f6e"/><rect x="11" y="9" width="1" height="1" fill="#7c1a49"/><rect x="12" y="9" width="1" height="1" fill="#9cc4cf"/><rect x="13" y="9" width="1" height="1" fill="#17130d"/><rect x="2" y="10" width="1" height="1" fill="#17130d"/><rect x="3" y="10" width="1" height="1" fill="#9cc4cf"/><rect x="4" y="10" width="1" height="1" fill="#cfe8ee"/><rect x="5" y="10" width="6" height="1" fill="#b52f6e"/><rect x="11" y="10" width="1" height="1" fill="#7c1a49"/><rect x="12" y="10" width="1" height="1" fill="#9cc4cf"/><rect x="13" y="10" width="1" height="1" fill="#17130d"/><rect x="2" y="11" width="1" height="1" fill="#17130d"/><rect x="3" y="11" width="1" height="1" fill="#9cc4cf"/><rect x="4" y="11" width="7" height="1" fill="#b52f6e"/><rect x="11" y="11" width="1" height="1" fill="#7c1a49"/><rect x="12" y="11" width="1" height="1" fill="#9cc4cf"/><rect x="13" y="11" width="1" height="1" fill="#17130d"/><rect x="2" y="12" width="1" height="1" fill="#17130d"/><rect x="3" y="12" width="1" height="1" fill="#9cc4cf"/><rect x="4" y="12" width="1" height="1" fill="#7c1a49"/><rect x="5" y="12" width="5" height="1" fill="#b52f6e"/><rect x="10" y="12" width="3" height="1" fill="#7c1a49"/><rect x="13" y="12" width="1" height="1" fill="#17130d"/><rect x="2" y="13" width="12" height="1" fill="#17130d"/></svg>
