<svg xmlns="http://www.w3.org/2000/svg" viewBox="0 0 16 16" width="64" height="64" shape-rendering="crispEdges"><rect x="2" y="2" width="11" height="1" fill="#17130d"/><rect x="1" y="3" width="1" height="1" fill="#17130d"/><rect x="2" y="3" width="10" height="1" fill="#9aa2ac"/><rect x="12" y="3" width="1" height="1" fill="#6d7581"/><rect x="13" y="3" width="1" height="1" fill="#17130d"/><rect x="1" y="4" width="1" height="1" fill="#17130d"/><rect x="2" y="4" width="10" height="1" fill="#6d7581"/><rect x="12" y="4" width="1" height="1" fill="#4b525c"/><rect x="13" y="4" width="1" height="1" fill="#17130d"/><rect x="1" y="5" width="12" height="1" fill="#17130d"/><rect x="2" y="6" width="2" height="1" fill="#17130d"/><rect x="4" y="6" width="4" height="1" fill="#7d8891"/><rect x="8" y="6" width="2" height="1" fill="#17130d"/><rect x="1" y="7" width="1" height="1" fill="#17130d"/><rect x="2" y="7" width="1" height="1" fill="#8a3b38"/><rect x="3" y="7" width="1" height="1" fill="#7d8891"/><rect x="4" y="7" width="1" height="1" fill="#4b525c"/><rect x="5" y="7" width="2" height="1" fill="#7d8891"/><rect x="7" y="7" width="1" height="1" fill="#4b525c"/><rect x="8" y="7" width="1" height="1" fill="#7d8891"/><rect x="9" y="7" width="1" height="1" fill="#17130d"/><rect x="1" y="8" width="1" height="1" fill="#17130d"/><rect x="2" y="8" width="1" height="1" fill="#8a3b38"/><rect x="3" y="8" width="6" height="1" fill="#7d8891"/><rect x="9" y="8" width="1" height="1" fill="#17130d"/><rect x="1" y="9" width="1" height="1" fill="#17130d"/><rect x="2" y="9" width="2" height="1" fill="#8a3b38"/><rect x="4" y="9" width="5" height="1" fill="#17130d"/><rect x="1" y="10" width="1" height="1" fill="#17130d"/><rect x="2" y="10" width="1" height="1" fill="#8a3b38"/><rect x="3" y="10" width="3" height="1" fill="#451b1b"/><rect x="6" y="10" width="1" height="1" fill="#17130d"/><rect x="2" y="11" width="1" height="1" fill="#17130d"/><rect x="3" y="11" width="1" height="1" fill="#8a3b38"/><rect x="4" y="11" width="3" height="1" fill="#451b1b"/><rect x="7" y="11" width="1" height="1" fill="#17130d"/><rect x="2" y="12" width="1" height="1" fill="#17130d"/><rect x="3" y="12" width="1" height="1" fill="#8a3b38"/><rect x="4" y="12" width="2" height="1" fill="#451b1b"/><rect x="6" y="12" width="1" height="1" fill="#17130d"/><rect x="3" y="13" width="3" height="1" fill="#17130d"/></svg>
